<?xml version="1.0" encoding="UTF-8" standalone="no"?>
<!-- Created with Inkscape (http://www.inkscape.org/) -->

<svg
   version="1.1"
   id="svg1"
   width="666.66669"
   height="666.66669"
   viewBox="0 0 666.66669 666.66669"
   sodipodi:docname="icon.svg"
   inkscape:version="1.2.2 (b0a8486541, 2022-12-01)"
   inkscape:export-filename="icon-512.png"
   inkscape:export-xdpi="73.727997"
   inkscape:export-ydpi="73.727997"
   xmlns:inkscape="http://www.inkscape.org/namespaces/inkscape"
   xmlns:sodipodi="http://sodipodi.sourceforge.net/DTD/sodipodi-0.dtd"
   xmlns="http://www.w3.org/2000/svg"
   xmlns:svg="http://www.w3.org/2000/svg">
  <defs
     id="defs1" />
  <sodipodi:namedview
     id="namedview1"
     pagecolor="#ffffff"
     bordercolor="#000000"
     borderopacity="0.25"
     inkscape:showpageshadow="2"
     inkscape:pageopacity="0.0"
     inkscape:pagecheckerboard="0"
     inkscape:deskcolor="#d1d1d1"
     showgrid="false"
     inkscape:zoom="1.0305"
     inkscape:cx="205.24018"
     inkscape:cy="362.93063"
     inkscape:window-width="1874"
     inkscape:window-height="1011"
     inkscape:window-x="0"
     inkscape:window-y="0"
     inkscape:window-maximized="1"
     inkscape:current-layer="g2" />
  <g
     inkscape:groupmode="layer"
     inkscape:label="Image"
     id="g1">
    <g
       id="g2"
       transform="translate(-12.951611,29.007116)">
      <rect
         style="fill:#ffffff;fill-opacity:1;stroke:#813d9c;stroke-width:1.8717;stroke-linejoin:bevel"
         id="rect992"
         width="381.67963"
         height="337.93188"
         x="155.44514"
         y="135.36029"
         rx="22.524082"
         ry="32.899433" />
      <path
         style="fill:#6307af;stroke-width:1.16575"
         d="m 177.31228,580.77157 c -2.319,-4.05166 -7.17685,-12.25176 -10.79519,-18.22247 -3.61835,-5.97072 -19.01602,-32.14124 -34.21704,-58.15672 C 117.09902,478.3769 99.725708,448.71697 93.692704,438.48138 87.659684,428.24582 77.810679,411.49668 71.805992,401.26109 65.801307,391.02551 56.563995,375.32319 51.278625,366.36706 45.993243,357.41092 39.350118,345.8959 36.516114,340.7781 33.682111,335.66031 30.508112,330.4262 29.462789,329.14677 28.417455,327.86731 24.71587,321.58639 21.237047,315.18914 L 14.911893,303.5578 27.469855,282.62141 c 6.906882,-11.51504 15.391791,-25.82158 18.855367,-31.79236 3.463577,-5.97074 8.875586,-15.04319 12.026699,-20.16098 3.151108,-5.1178 12.411528,-20.82011 20.57872,-34.89404 8.167185,-14.07392 23.113059,-39.54656 33.213039,-56.60586 10.09998,-17.05931 23.55676,-40.089384 29.90395,-51.177935 6.3472,-11.088537 17.67648,-30.629194 25.1762,-43.423672 l 13.63586,-23.262687 165.90937,-0.394699 165.90936,-0.394687 2.21428,4.23309 c 3.70641,7.085709 15.66502,27.720538 32.60689,56.263855 8.85984,14.926885 22.20082,37.608025 29.64661,50.402495 7.44579,12.79448 18.27977,31.28832 24.07552,41.09742 5.79574,9.80909 14.18036,24.11565 18.63245,31.79233 4.45209,7.67668 14.9896,25.47265 23.41666,39.54657 8.42708,14.07394 18.81507,31.52096 23.08443,38.77116 4.26936,7.25025 8.85047,15.01406 10.18022,17.25299 2.6263,4.42199 2.49292,4.70416 -21.53733,45.55624 -4.01389,6.82376 -11.3747,19.3856 -16.35735,27.91523 -4.98266,8.52972 -16.53811,28.07037 -25.67879,43.42375 -9.14067,15.35337 -26.6687,45.0133 -38.95118,65.91087 -12.28247,20.8977 -24.85287,42.27471 -27.9342,47.5045 -3.08133,5.22981 -11.91158,20.38196 -19.62277,33.67146 l -14.02037,24.16272 -165.4524,0.0594 -165.45242,0.0594 z M 363.57931,425.20444 c 26.74195,-4.31941 54.13865,-18.69005 70.1468,-36.79494 7.15161,-8.08821 9.89858,-9.97248 19.75763,-13.55214 6.29814,-2.28684 11.74011,-4.62324 12.09329,-5.19211 0.35317,-0.56889 -0.43739,-6.25441 -1.75679,-12.63444 -2.18765,-10.57835 -2.17348,-12.55639 0.16079,-22.45606 3.87457,-16.43217 4.66952,-30.04654 2.58368,-44.24796 -1.78669,-12.16461 -7.16976,-29.69759 -12.02024,-39.15066 l -2.20917,-4.30549 -10.8948,7.40717 c -7.14432,4.8573 -10.65592,8.20799 -10.2009,9.73344 0.38164,1.27945 2.15731,6.32188 3.94592,11.20538 4.98007,13.59729 6.62402,28.58648 4.67775,42.65087 -2.36,17.05457 -3.70259,19.2109 -13.88863,22.30693 -6.64183,2.01886 -8.49626,3.25108 -8.24899,5.48116 0.17544,1.58221 0.7773,6.76247 1.33747,11.51166 l 1.01849,8.63487 -9.90546,9.0108 c -11.19595,10.18475 -30.15968,20.08385 -43.39857,22.65414 -30.85869,5.9912 -62.20161,-2.79686 -84.54322,-23.70456 l -8.9891,-8.41214 1.52519,-10.72164 c 0.83887,-5.89699 1.02837,-11.19239 0.42111,-11.76744 -0.60724,-0.57517 -4.59874,-2.04712 -8.86999,-3.27108 -7.22987,-2.07166 -7.90515,-2.69616 -9.78388,-9.04827 -7.14667,-24.16341 -2.03374,-56.02793 12.36712,-77.07364 11.65564,-17.03381 28.72858,-29.52724 50.02435,-36.60626 10.77198,-3.58076 13.80168,-3.1355 21.12468,3.10467 l 6.55123,5.58251 6.84335,-5.58251 c 8.037,-6.55624 11.30382,-6.8261 24.57596,-2.03012 9.20265,3.32544 26.57536,13.54455 28.6171,16.83341 0.74313,1.19701 11.80152,-6.99481 20.38245,-15.09887 3.73242,-3.52501 -21.7104,-21.13136 -38.8767,-26.90257 -5.23164,-1.75884 -11.02427,-3.1979 -12.87251,-3.1979 -1.84827,0 -6.0935,-2.07835 -9.43388,-4.61856 -3.34038,-2.54021 -8.98925,-6.71751 -12.55303,-9.28291 l -6.47957,-4.66435 -9.69051,7.34434 c -12.54015,9.50407 -14.60974,10.57345 -24.86373,12.84717 -18.47975,4.09769 -40.81326,18.2524 -56.75002,35.96743 -9.52679,10.58983 -22.69243,35.32476 -25.77356,48.42202 -4.85044,20.61833 -4.79513,41.88647 0.15975,61.40922 1.43441,5.65168 1.31867,9.64621 -0.57608,19.88146 l -2.37114,12.80866 4.09955,1.50392 c 15.92274,5.8414 21.05959,8.69746 24.72588,13.74756 5.02622,6.92334 17.32727,17.14066 29.23092,24.27915 23.88748,14.32529 52.64822,20.17725 78.58001,15.98868 z m 3.19827,-70.87373 c 10.89098,-4.79642 21.05508,-14.7482 26.67985,-26.12248 4.23219,-8.55847 5.00529,-11.88292 5.12014,-22.01802 0.11753,-10.37155 -0.50715,-13.25973 -4.76226,-22.0179 -7.93541,-16.33336 -17.74352,-24.47474 -34.67199,-28.78012 -41.88984,-10.6537 -78.00384,32.42969 -60.19549,71.81213 4.21862,9.32927 12.09273,18.19201 21.77268,24.5062 11.12982,7.25982 32.73145,8.48878 46.05707,2.62019 z"
         id="path2" />
    </g>
  </g>
</svg>
